<svg width="512" height="512" viewBox="0 0 512 512" fill="none" xmlns="http://www.w3.org/2000/svg">
  <rect width="512" height="512" rx="128" fill="url(#gradient)"/>
  <path d="M256 128C185.3 128 128 185.3 128 256s57.3 128 128 128 128-57.3 128-128-57.3-128-128-128zm0 96c17.7 0 32 14.3 32 32s-14.3 32-32 32-32-14.3-32-32 14.3-32 32-32z" fill="white"/>
  <path d="M320 192v128c0 35.3-28.7 64-64 64s-64-28.7-64-64 28.7-64 64-64c8.8 0 17.2 1.8 24.8 5V192h39.2z" fill="white" opacity="0.9"/>
  <text x="256" y="420" text-anchor="middle" font-family="system-ui" font-size="48" font-weight="bold" fill="white">LúcioFM</text>
  <defs>
    <linearGradient id="gradient" x1="0" y1="0" x2="512" y2="512">
      <stop offset="0%" stop-color="#EC4899"/>
      <stop offset="100%" stop-color="#8B5CF6"/>
    </linearGradient>
  </defs>
</svg>